# xmcd CD database file
#
# Track frame offsets:
#	160
#	36837
#	72240
#	112920
#	135225
#	178365
#	209400
#	250425
#
# Disc length: 3606 seconds
#
# Revision: 2
# Processed by: cddbd v1.5.2PL0 Copyright (c) Steve Scherf et al.
# Submitted via: CDex 1.51
#
DISCID=730e1408
DTITLE=Peter Davidson - Adagio - Music For Massage
DYEAR=2000
DGENRE=New Age
TTITLE0=Fragrances
TTITLE1=Drifting Away
TTITLE2=Light Waves
TTITLE3=Wind Bells
TTITLE4=Focal Point
TTITLE5=Sunrays
TTITLE6=Release Into The Light
TTITLE7=Remembering The Day
EXTD=YEAR: 2000
EXTT0=
EXTT1=
EXTT2=
EXTT3=
EXTT4=
EXTT5=
EXTT6=
EXTT7=
PLAYORDER=
